<svg width="22" height="19" viewBox="0 0 22 19" fill="none" xmlns="http://www.w3.org/2000/svg">
<path d="M20.6492 6.49694L19.1444 2.16495C18.9261 1.53423 18.5062 0.985572 17.9444 0.596925C17.3826 0.208278 16.7075 -0.000589217 16.0149 1.24848e-06H5.9851C5.29253 -0.000589217 4.61738 0.208278 4.05557 0.596925C3.49377 0.985572 3.07389 1.53423 2.8556 2.16495L1.3508 6.49694C0.950645 6.65762 0.608916 6.92822 0.368573 7.27473C0.12823 7.62124 -5.2899e-07 8.0282 0 8.44445V13.7222C0 14.5012 0.4444 15.1747 1.1 15.5409V17.9444C1.1 18.2244 1.21589 18.4929 1.42218 18.6908C1.62847 18.8888 1.90826 19 2.2 19H3.3C3.59174 19 3.87153 18.8888 4.07782 18.6908C4.28411 18.4929 4.4 18.2244 4.4 17.9444V15.8333H17.6V17.9444C17.6 18.2244 17.7159 18.4929 17.9222 18.6908C18.1285 18.8888 18.4083 19 18.7 19H19.8C20.0917 19 20.3715 18.8888 20.5778 18.6908C20.7841 18.4929 20.9 18.2244 20.9 17.9444V15.5409C21.2337 15.3573 21.5111 15.0925 21.7042 14.7732C21.8974 14.4539 21.9994 14.0914 22 13.7222V8.44445C22 8.0282 21.8718 7.62124 21.6314 7.27473C21.3911 6.92822 21.0494 6.65762 20.6492 6.49694ZM5.9851 2.11111H16.0138C16.4879 2.11111 16.9081 2.40033 17.0577 2.83311L18.2743 6.33333H3.7257L4.9412 2.83311C5.01418 2.62284 5.15429 2.43995 5.34165 2.31036C5.52902 2.18077 5.75414 2.11106 5.9851 2.11111V2.11111ZM3.85 12.6667C3.63325 12.6666 3.41863 12.6256 3.2184 12.5459C3.01818 12.4662 2.83626 12.3495 2.68305 12.2024C2.52983 12.0553 2.40831 11.8806 2.32543 11.6884C2.24255 11.4962 2.19993 11.2903 2.2 11.0823C2.20007 10.8743 2.24284 10.6683 2.32585 10.4762C2.40887 10.2841 2.53051 10.1095 2.68382 9.96247C2.83714 9.81545 3.01914 9.69884 3.21942 9.61931C3.4197 9.53978 3.63435 9.49888 3.8511 9.49894C4.28885 9.49908 4.70862 9.66609 5.01805 9.96322C5.32749 10.2604 5.50125 10.6633 5.5011 11.0833C5.50095 11.5034 5.32692 11.9062 5.01728 12.2031C4.70763 12.5001 4.28775 12.6668 3.85 12.6667V12.6667ZM18.15 12.6667C17.9332 12.6666 17.7186 12.6256 17.5184 12.5459C17.3182 12.4662 17.1363 12.3495 16.983 12.2024C16.8298 12.0553 16.7083 11.8806 16.6254 11.6884C16.5425 11.4962 16.4999 11.2903 16.5 11.0823C16.5001 10.8743 16.5428 10.6683 16.6259 10.4762C16.7089 10.2841 16.8305 10.1095 16.9838 9.96247C17.1371 9.81545 17.3191 9.69884 17.5194 9.61931C17.7197 9.53978 17.9343 9.49888 18.1511 9.49894C18.5889 9.49908 19.0086 9.66609 19.3181 9.96322C19.6275 10.2604 19.8012 10.6633 19.8011 11.0833C19.801 11.5034 19.6269 11.9062 19.3173 12.2031C19.0076 12.5001 18.5878 12.6668 18.15 12.6667V12.6667Z" fill="#FFC187"/>
</svg>
