<svg width="24" height="19" viewBox="0 0 24 19" fill="none" xmlns="http://www.w3.org/2000/svg">
<path d="M0 3.75C0 2.95435 0.316071 2.19129 0.87868 1.62868C1.44129 1.06607 2.20435 0.75 3 0.75H21C21.7956 0.75 22.5587 1.06607 23.1213 1.62868C23.6839 2.19129 24 2.95435 24 3.75V5.25H0V3.75ZM0 8.25V15.75C0 16.5456 0.316071 17.3087 0.87868 17.8713C1.44129 18.4339 2.20435 18.75 3 18.75H21C21.7956 18.75 22.5587 18.4339 23.1213 17.8713C23.6839 17.3087 24 16.5456 24 15.75V8.25H0ZM4.5 11.25H6C6.39782 11.25 6.77936 11.408 7.06066 11.6893C7.34196 11.9706 7.5 12.3522 7.5 12.75V14.25C7.5 14.6478 7.34196 15.0294 7.06066 15.3107C6.77936 15.592 6.39782 15.75 6 15.75H4.5C4.10218 15.75 3.72064 15.592 3.43934 15.3107C3.15804 15.0294 3 14.6478 3 14.25V12.75C3 12.3522 3.15804 11.9706 3.43934 11.6893C3.72064 11.408 4.10218 11.25 4.5 11.25V11.25Z" fill="#8DBCE8"/>
</svg>
