<svg width="22" height="17" viewBox="0 0 22 17" fill="none" xmlns="http://www.w3.org/2000/svg">
<path d="M21.3125 13.75H0.6875C0.501302 13.75 0.340169 13.682 0.204102 13.5459C0.0680339 13.4098 0 13.2487 0 13.0625C0 10.3698 0.83431 8.07454 2.50293 6.17676C4.17155 4.27897 6.31641 3.13672 8.9375 2.75C9.1237 2.75 9.28483 2.68197 9.4209 2.5459C9.55697 2.40983 9.625 2.2487 9.625 2.0625C9.625 1.8763 9.55697 1.71517 9.4209 1.5791C9.28483 1.44303 9.1237 1.375 8.9375 1.375C8.7513 1.375 8.59017 1.30697 8.4541 1.1709C8.31803 1.03483 8.25 0.873698 8.25 0.6875C8.25 0.501302 8.31803 0.340169 8.4541 0.204102C8.59017 0.0680339 8.7513 0 8.9375 0H13.0625C13.2487 0 13.4098 0.0680339 13.5459 0.204102C13.682 0.340169 13.75 0.501302 13.75 0.6875C13.75 0.873698 13.682 1.03483 13.5459 1.1709C13.4098 1.30697 13.2487 1.375 13.0625 1.375C12.8763 1.375 12.7152 1.44303 12.5791 1.5791C12.443 1.71517 12.375 1.8763 12.375 2.0625C12.375 2.2487 12.443 2.40983 12.5791 2.5459C12.7152 2.68197 12.8763 2.75 13.0625 2.75C15.6836 3.13672 17.8285 4.27897 19.4971 6.17676C21.1657 8.07454 22 10.3698 22 13.0625C22 13.2487 21.932 13.4098 21.7959 13.5459C21.6598 13.682 21.4987 13.75 21.3125 13.75ZM0.6875 15.125H21.3125C21.4987 15.125 21.6598 15.193 21.7959 15.3291C21.932 15.4652 22 15.6263 22 15.8125C22 15.9987 21.932 16.1598 21.7959 16.2959C21.6598 16.432 21.4987 16.5 21.3125 16.5H0.6875C0.501302 16.5 0.340169 16.432 0.204102 16.2959C0.0680339 16.1598 0 15.9987 0 15.8125C0 15.6263 0.0680339 15.4652 0.204102 15.3291C0.340169 15.193 0.501302 15.125 0.6875 15.125Z" fill="white"/>
</svg>
