<svg width="20" height="25" viewBox="0 0 20 25" fill="none" xmlns="http://www.w3.org/2000/svg">
<path d="M8.125 13.6743H6.875C5.8375 13.6743 5 12.8311 5 11.7867C5 10.7422 5.8375 9.89903 6.875 9.89903H8.125V8.64062C8.125 7.59613 8.9625 6.753 10 6.753C11.0375 6.753 11.875 7.59613 11.875 8.64062V9.89903H13.125C14.1625 9.89903 15 10.7422 15 11.7867C15 12.8311 14.1625 13.6743 13.125 13.6743H11.875V14.9327C11.875 15.9772 11.0375 16.8203 10 16.8203C8.9625 16.8203 8.125 15.9772 8.125 14.9327V13.6743ZM9.125 0.158908L1.625 2.99034C0.65 3.36786 0 4.29909 0 5.35616V11.2707C0 17.6257 4.2625 23.5528 10 25C15.7375 23.5528 20 17.6257 20 11.2707V5.35616C19.9991 4.84406 19.8431 4.34442 19.5527 3.92394C19.2624 3.50346 18.8515 3.18216 18.375 3.00292L10.875 0.171493C10.3125 -0.0550219 9.6875 -0.0550219 9.125 0.158908V0.158908Z" fill="#A8BAC5"/>
</svg>
