<svg width="24" height="24" viewBox="0 0 24 24" fill="none" xmlns="http://www.w3.org/2000/svg">
<path d="M23.3364 4.62303L16.1364 1.12332C15.9697 1.04222 15.7858 1 15.5994 1C15.413 1 15.2291 1.04222 15.0624 1.12332L8.4 4.36288L1.7364 1.12332C1.5534 1.03443 1.35007 0.992488 1.14571 1.00149C0.941346 1.01048 0.742744 1.07012 0.568763 1.17473C0.394782 1.27935 0.251201 1.42546 0.151655 1.5992C0.0521092 1.77294 -9.52197e-05 1.96853 1.30381e-07 2.1674V17.3328C1.30381e-07 17.7749 0.2568 18.1785 0.6636 18.3769L7.8636 21.8766C8.03032 21.9577 8.21418 21.9999 8.4006 21.9999C8.58702 21.9999 8.77088 21.9577 8.9376 21.8766L15.6 18.637L22.2636 21.8754C22.4461 21.9651 22.6493 22.0077 22.8536 21.9989C23.0579 21.9901 23.2564 21.9303 23.43 21.8252C23.784 21.6117 24 21.2373 24 20.8325V5.6671C24 5.22498 23.7432 4.82134 23.3364 4.62303V4.62303ZM9.6 6.38804L14.4 4.05491V16.6118L9.6 18.945V6.38804ZM2.4 4.05491L7.2 6.38804V18.945L2.4 16.6118V4.05491ZM21.6 18.945L16.8 16.6118V4.05491L21.6 6.38804V18.945Z" fill="#EB5757"/>
</svg>
