<svg width="28" height="26" viewBox="0 0 28 26" fill="none" xmlns="http://www.w3.org/2000/svg">
<path d="M6.14986 6.19715C6.59891 6.19715 7.04272 6.31701 7.43507 6.54505C7.56457 6.62071 8.13927 7.06832 8.41892 7.56718C8.51377 7.73654 8.57782 7.90342 8.62402 8.06181C8.98138 8.20854 9.34153 8.26511 9.36883 8.269V8.84459C9.45668 8.93298 9.53998 9.02561 9.61173 9.12673C9.87563 9.49761 9.99603 9.85611 10.0359 9.99612C10.0776 9.99789 10.1168 10.0007 10.1549 10.0035V9.43573L11.2959 7.82811C11.6081 7.61527 11.8727 7.33843 12.0757 7.01705C12.3417 7.14999 12.6399 7.22636 12.9567 7.22636C13.0085 7.22636 13.0575 7.21716 13.1082 7.21292C13.3273 7.04852 13.5625 6.90356 13.818 6.79289C13.7512 6.30039 13.7204 5.34578 14.2087 4.28405C14.2531 4.18682 14.3767 3.96974 14.4376 3.86968C14.1446 3.54052 13.747 3.30894 13.2962 3.23081C13.3329 3.07701 13.355 2.91755 13.355 2.75244C13.355 1.64015 12.4628 0.738581 11.3621 0.738581C11.2739 0.738581 11.1881 0.746359 11.1034 0.757673C10.8238 0.304413 10.3299 0 9.76188 0C8.88723 0 8.17812 0.716307 8.17812 1.59949C8.17812 1.61823 8.18267 1.63556 8.18337 1.65394C7.49737 1.82931 6.98742 2.45157 6.98742 3.19934C6.98742 3.21419 6.99127 3.22868 6.99232 3.24353C6.85862 3.2149 6.72037 3.19934 6.57827 3.19934C5.47716 3.19934 4.58466 4.10126 4.58466 5.2132C4.58466 5.68803 4.74846 6.1229 5.02041 6.46656C5.42221 6.27246 5.91431 6.19715 6.14986 6.19715ZM10.1553 8.269C10.2946 8.24884 10.4307 8.22056 10.562 8.18025L10.1553 8.75266V8.269Z" fill="white"/>
<path d="M9.52599 11.0989C9.63835 10.9632 9.7514 10.838 9.86235 10.7256C9.87075 10.7171 9.8795 10.7083 9.8879 10.6998C9.88195 10.6998 9.8767 10.6994 9.87075 10.6994C9.72865 10.6994 9.57535 10.7114 9.44339 10.7468C9.44024 10.7475 9.43604 10.7479 9.43289 10.7486C9.43324 10.7337 9.43605 10.7196 9.4371 10.7051C9.4371 10.7023 9.43779 10.6994 9.43779 10.6966C9.43779 10.5276 9.40979 10.3667 9.36849 10.2112C9.32894 10.0623 9.22464 9.79432 9.04299 9.53941C9.03564 9.52915 9.02584 9.52138 9.01849 9.51112C8.92049 9.38031 8.80079 9.26823 8.66849 9.17171C8.47634 9.0317 8.25724 8.92492 8.02064 8.86447C8.02099 8.85315 8.03394 8.72552 8.01154 8.54132C7.99194 8.38115 7.94259 8.17857 7.83619 7.96961C7.82709 7.95158 7.82009 7.93355 7.80994 7.91552C7.61219 7.56302 7.14598 7.19285 7.08438 7.15679C6.80893 6.99662 6.49078 6.90399 6.14988 6.90399C5.96753 6.90399 5.53668 6.9793 5.25843 7.13592C5.24757 7.14229 5.23777 7.15007 5.22692 7.15643C5.12157 7.2183 5.02427 7.29008 4.93327 7.36927C4.78907 7.49443 4.66167 7.63798 4.56017 7.80238C4.45972 7.78895 4.35787 7.78011 4.25357 7.78011C2.94841 7.78011 1.89071 8.84856 1.89071 10.167C1.89071 10.3625 1.91696 10.552 1.96071 10.7341C0.847704 10.9271 0 11.904 0 13.0835C0 14.4019 1.05806 15.47 2.36321 15.47C2.73876 15.47 3.09261 15.3795 3.40762 15.2221C3.64842 15.6019 3.96167 15.9307 4.33127 16.1827L5.68403 18.0888V21.8085H6.61608V16.7053C7.46029 16.583 8.19809 16.1347 8.70244 15.4894C8.51659 14.998 8.41684 14.485 8.41684 13.9578C8.41684 13.1641 8.66849 12.4902 8.74619 12.3007C8.88654 11.9623 9.19664 11.4974 9.52599 11.0989ZM5.68403 17.2798L5.20172 16.6003C5.35748 16.648 5.51918 16.6816 5.68403 16.7053V17.2798Z" fill="white"/>
<path d="M24.4343 9.33467C24.3846 9.33467 24.3366 9.34068 24.2869 9.34245C24.3818 9.05712 24.4343 8.75342 24.4343 8.43663C24.4343 6.85552 23.1662 5.57459 21.6021 5.57459C21.5835 5.57459 21.5664 5.57706 21.5482 5.57706C21.2654 3.87362 19.8034 2.57465 18.0362 2.57465C16.9355 2.57465 15.9537 3.08024 15.3003 3.87221C15.2191 3.9705 15.1442 4.07409 15.0735 4.18122C15.0661 4.19253 15.057 4.20243 15.05 4.21339C15.0136 4.26961 14.875 4.51391 14.8446 4.58038C14.2769 5.81465 14.5366 6.84598 14.5499 6.91033C14.5527 6.92305 14.5569 6.93508 14.5593 6.9478C14.5824 7.05705 14.608 7.16524 14.6409 7.27025C14.1617 7.36818 13.727 7.58845 13.3686 7.8971C12.7596 8.42178 12.3729 9.20173 12.3729 10.074C12.3729 10.174 12.3781 10.2727 12.3879 10.3706C12.305 10.3777 12.2003 10.3943 12.088 10.4162C11.7845 10.4756 11.4023 10.5866 11.0632 10.7404C10.989 10.774 10.9183 10.8097 10.85 10.8475C10.7552 10.8995 10.6649 10.954 10.5875 11.013C10.5518 11.0406 10.513 11.0763 10.4741 11.1109C10.0783 11.468 9.55536 12.178 9.39191 12.5725C9.36986 12.6266 9.11646 13.2457 9.11646 13.9567C9.11646 14.4754 9.2267 14.9668 9.42201 15.4123C9.43321 15.4381 9.46261 15.4965 9.49411 15.5587C9.53856 15.6464 9.58861 15.7422 9.60891 15.7768C9.77621 16.0639 9.98376 16.3227 10.22 16.5518C10.8598 17.1727 11.7243 17.5577 12.6816 17.5577C13.6248 17.5577 14.4799 17.1854 15.1176 16.5805C15.756 17.0585 16.5109 17.3823 17.3334 17.5015V25.2002H18.7398V19.5899L20.781 16.7138C21.2454 16.3973 21.649 15.9992 21.9822 15.5453C22.6209 16.159 23.483 16.5377 24.4343 16.5377C26.4034 16.5377 28.0001 14.9251 28.0001 12.9364C28.0001 10.9469 26.4034 9.33467 24.4343 9.33467ZM18.7401 18.3695V17.5029C18.989 17.4668 19.2326 17.4166 19.4681 17.3442L18.7401 18.3695Z" fill="white"/>
</svg>
